<?xml version="1.0" encoding="utf-8"?>

<!-- License: MIT. Made by jtblabs: https://github.com/jtblabs/jtb-icons -->
<svg fill="#000000" width="800px" height="800px" viewBox="0 0 32 32" version="1.1" xmlns="http://www.w3.org/2000/svg">
<title>rc</title>
  <path d="M10.676,15.973a10.052,10.052,0,0,0,1.175,5.151,5.446,5.446,0,0,0,6.306,2.408,4.284,4.284,0,0,0,3.09-3.6c.107-.6.109-.61.109-.61,1.737.251,4.537.658,6.274.906l-.11.44a11.256,11.256,0,0,1-2.7,5.39,9.439,9.439,0,0,1-5.366,2.688,14.61,14.61,0,0,1-8.277-.819A10.151,10.151,0,0,1,5.4,21.687a16.225,16.225,0,0,1,.019-11.45,10.538,10.538,0,0,1,8.963-7.054,13.353,13.353,0,0,1,6.666.555,9.571,9.571,0,0,1,6.167,6.9c.094.352.114.417.114.417-1.932.351-4.319.8-6.238,1.215-.362-1.915-1.265-3.428-3.2-3.9a5.263,5.263,0,0,0-6.616,3.57,10.49,10.49,0,0,0-.385,1.439A12.31,12.31,0,0,0,10.676,15.973Z" style="fill:#005f91"/>
<path d="M26.695 26.725l-5.732-7.951c1.278-0.52 2.343-1.338 3.145-2.371l0.013-0.017c0.982-1.248 1.575-2.843 1.575-4.576 0-0.026-0-0.051-0-0.077l0 0.004c0-0.029 0.001-0.063 0.001-0.096 0-2.117-0.883-4.027-2.301-5.383l-0.003-0.003c-1.476-1.405-3.478-2.269-5.681-2.269-0.118 0-0.236 0.002-0.353 0.007l0.017-0.001h-9.055c-0.442 0-0.8 0.358-0.8 0.8v22.4c0 0.442 0.358 0.8 0.8 0.801h0.928c0.442-0.001 0.8-0.359 0.8-0.801v0-7.744h7.327c0.313 0 0.616-0.016 0.91-0.043l5.961 8.256c0.147 0.202 0.383 0.331 0.648 0.332h1.152c0 0 0 0 0.001 0 0.442 0 0.8-0.358 0.8-0.8 0-0.176-0.057-0.34-0.154-0.472l0.002 0.002zM10.048 6.521h7.263c0.109-0.007 0.235-0.011 0.363-0.011 1.516 0 2.896 0.58 3.93 1.531l-0.004-0.004c0.947 0.902 1.537 2.173 1.537 3.581 0 0.042-0.001 0.083-0.002 0.125l0-0.006c0.001 0.035 0.001 0.077 0.001 0.119 0 1.409-0.589 2.68-1.535 3.58l-0.002 0.002c-1.030 0.946-2.41 1.526-3.925 1.526-0.128 0-0.255-0.004-0.381-0.012l0.017 0.001h-7.263z"></path>



</svg>
